<svg width="274" height="586" viewBox="0 0 274 586" fill="none" xmlns="http://www.w3.org/2000/svg">
<path d="M192.863 535.685C189.896 535.685 187.491 533.293 187.491 530.342C187.491 527.392 189.896 525 192.863 525C195.83 525 198.236 527.392 198.236 530.342C198.236 533.284 195.83 535.685 192.863 535.685Z" stroke="#414142" stroke-width="2" stroke-miterlimit="10" stroke-linecap="round" stroke-linejoin="round"/>
<path d="M189.157 534.204L185.357 537.973" stroke="#414142" stroke-width="2" stroke-miterlimit="10" stroke-linecap="round" stroke-linejoin="round"/>
<path d="M182.262 155.005L176.609 160.626" stroke="#414142" stroke-width="2" stroke-miterlimit="10" stroke-linecap="round" stroke-linejoin="round"/>
<path d="M182.262 160.626L176.609 155.005" stroke="#414142" stroke-width="2" stroke-miterlimit="10" stroke-linecap="round" stroke-linejoin="round"/>
<path d="M77.0096 481L71.3574 486.621" stroke="#414142" stroke-width="2" stroke-miterlimit="10" stroke-linecap="round" stroke-linejoin="round"/>
<path d="M77.0096 486.621L71.3574 481" stroke="#414142" stroke-width="2" stroke-miterlimit="10" stroke-linecap="round" stroke-linejoin="round"/>
<path d="M9.79639 159.619L1.80323 159.619" stroke="#414142" stroke-width="2" stroke-miterlimit="10" stroke-linecap="round" stroke-linejoin="round"/>
<path d="M5.80078 163.603L5.80078 155.645" stroke="#414142" stroke-width="2" stroke-miterlimit="10" stroke-linecap="round" stroke-linejoin="round"/>
<path d="M141.723 52.3046C139.046 52.3046 136.866 50.1453 136.866 47.474C136.866 44.8121 139.037 42.6434 141.723 42.6434C144.4 42.6434 146.581 44.8028 146.581 47.474C146.572 50.1453 144.4 52.3046 141.723 52.3046Z" stroke="#414142" stroke-width="2" stroke-miterlimit="10" stroke-linecap="round" stroke-linejoin="round"/>
<path d="M267.5 336.577C264.823 336.577 262.642 334.417 262.642 331.746C262.642 329.084 264.814 326.915 267.5 326.915C270.177 326.915 272.357 329.075 272.357 331.746C272.348 334.417 270.177 336.577 267.5 336.577Z" stroke="#414142" stroke-width="2" stroke-miterlimit="10" stroke-linecap="round" stroke-linejoin="round"/>
<path d="M12.215 407.441C9.53809 407.441 7.35728 405.282 7.35728 402.611C7.35728 399.949 9.52873 397.78 12.215 397.78C14.8918 397.78 17.0726 399.94 17.0726 402.611C17.0633 405.282 14.8918 407.441 12.215 407.441Z" stroke="#414142" stroke-width="2" stroke-miterlimit="10" stroke-linecap="round" stroke-linejoin="round"/>
<path d="M74.7076 1.74976C74.7076 2.71599 75.4952 3.49927 76.4669 3.49927C77.4385 3.49927 78.2262 2.71599 78.2262 1.74976C78.2262 0.783529 77.4385 0.000244106 76.4669 0.000244064C75.4952 0.000244021 74.7076 0.783528 74.7076 1.74976Z" fill="#2c2c2c"/>
<path d="M74.7076 13.9703C74.7076 14.9366 75.4952 15.7199 76.4669 15.7199C77.4385 15.7199 78.2262 14.9366 78.2262 13.9703C78.2262 13.0041 77.4385 12.2208 76.4669 12.2208C75.4952 12.2208 74.7076 13.0041 74.7076 13.9703Z" fill="#2c2c2c"/>
<path d="M74.7076 26.1799C74.7076 27.1462 75.4952 27.9294 76.4669 27.9294C77.4385 27.9294 78.2262 27.1462 78.2262 26.1799C78.2262 25.2137 77.4385 24.4304 76.4669 24.4304C75.4952 24.4304 74.7076 25.2137 74.7076 26.1799Z" fill="#2c2c2c"/>
<path d="M74.7076 38.4002C74.7076 39.3664 75.4952 40.1497 76.4669 40.1497C77.4385 40.1497 78.2262 39.3664 78.2262 38.4002C78.2262 37.434 77.4385 36.6507 76.4669 36.6507C75.4952 36.6507 74.7076 37.434 74.7076 38.4002Z" fill="#2c2c2c"/>
<path d="M74.7076 50.6107C74.7076 51.5769 75.4952 52.3602 76.4669 52.3602C77.4385 52.3602 78.2262 51.5769 78.2262 50.6107C78.2262 49.6445 77.4385 48.8612 76.4669 48.8612C75.4952 48.8612 74.7076 49.6445 74.7076 50.6107Z" fill="#2c2c2c"/>
<path d="M74.7076 62.8306C74.7076 63.7968 75.4952 64.5801 76.4669 64.5801C77.4385 64.5801 78.2262 63.7968 78.2262 62.8306C78.2262 61.8643 77.4385 61.0811 76.4669 61.0811C75.4952 61.0811 74.7076 61.8643 74.7076 62.8306Z" fill="#2c2c2c"/>
<path d="M62.4275 1.74951C62.4275 2.71574 63.2152 3.49903 64.1868 3.49903C65.1585 3.49903 65.9462 2.71574 65.9462 1.74951C65.9462 0.783284 65.1585 -3.44304e-08 64.1868 -7.69023e-08C63.2152 -1.19374e-07 62.4275 0.783284 62.4275 1.74951Z" fill="#2c2c2c"/>
<path d="M62.4275 13.9702C62.4275 14.9364 63.2152 15.7197 64.1868 15.7197C65.1585 15.7197 65.9462 14.9364 65.9462 13.9702C65.9462 13.004 65.1585 12.2207 64.1868 12.2207C63.2152 12.2207 62.4275 13.004 62.4275 13.9702Z" fill="#2c2c2c"/>
<path d="M62.4275 26.1802C62.4275 27.1464 63.2152 27.9297 64.1868 27.9297C65.1585 27.9297 65.9462 27.1464 65.9462 26.1802C65.9462 25.2139 65.1585 24.4307 64.1868 24.4307C63.2152 24.4307 62.4275 25.2139 62.4275 26.1802Z" fill="#2c2c2c"/>
<path d="M62.4275 38.4004C62.4275 39.3666 63.2152 40.1499 64.1868 40.1499C65.1585 40.1499 65.9462 39.3666 65.9462 38.4004C65.9462 37.4342 65.1585 36.6509 64.1868 36.6509C63.2152 36.6509 62.4275 37.4342 62.4275 38.4004Z" fill="#2c2c2c"/>
<path d="M62.4275 50.6108C62.4275 51.5771 63.2152 52.3603 64.1868 52.3603C65.1585 52.3603 65.9462 51.5771 65.9462 50.6108C65.9462 49.6446 65.1585 48.8613 64.1868 48.8613C63.2152 48.8613 62.4275 49.6446 62.4275 50.6108Z" fill="#2c2c2c"/>
<path d="M62.4275 62.8306C62.4275 63.7968 63.2152 64.5801 64.1868 64.5801C65.1585 64.5801 65.9462 63.7968 65.9462 62.8306C65.9462 61.8643 65.1585 61.0811 64.1868 61.0811C63.2152 61.0811 62.4275 61.8643 62.4275 62.8306Z" fill="#2c2c2c"/>
<path d="M50.1384 1.74951C50.1384 2.71574 50.926 3.49903 51.8977 3.49903C52.8693 3.49903 53.657 2.71574 53.657 1.74951C53.657 0.783284 52.8693 -3.44305e-08 51.8977 -7.69024e-08C50.926 -1.19374e-07 50.1384 0.783284 50.1384 1.74951Z" fill="#2c2c2c"/>
<path d="M50.1384 13.9702C50.1384 14.9364 50.926 15.7197 51.8977 15.7197C52.8693 15.7197 53.657 14.9364 53.657 13.9702C53.657 13.004 52.8693 12.2207 51.8977 12.2207C50.926 12.2207 50.1384 13.004 50.1384 13.9702Z" fill="#2c2c2c"/>
<path d="M50.1384 26.1802C50.1384 27.1464 50.926 27.9297 51.8977 27.9297C52.8693 27.9297 53.657 27.1464 53.657 26.1802C53.657 25.2139 52.8693 24.4307 51.8977 24.4307C50.926 24.4307 50.1384 25.2139 50.1384 26.1802Z" fill="#2c2c2c"/>
<path d="M50.1384 38.4004C50.1384 39.3666 50.926 40.1499 51.8977 40.1499C52.8693 40.1499 53.657 39.3666 53.657 38.4004C53.657 37.4342 52.8693 36.6509 51.8977 36.6509C50.926 36.6509 50.1384 37.4342 50.1384 38.4004Z" fill="#2c2c2c"/>
<path d="M50.1384 50.6108C50.1384 51.5771 50.926 52.3603 51.8977 52.3603C52.8693 52.3603 53.657 51.5771 53.657 50.6108C53.657 49.6446 52.8693 48.8613 51.8977 48.8613C50.926 48.8613 50.1384 49.6446 50.1384 50.6108Z" fill="#2c2c2c"/>
<path d="M50.1384 62.8306C50.1384 63.7968 50.926 64.5801 51.8977 64.5801C52.8693 64.5801 53.657 63.7968 53.657 62.8306C53.657 61.8643 52.8693 61.0811 51.8977 61.0811C50.926 61.0811 50.1384 61.8643 50.1384 62.8306Z" fill="#2c2c2c"/>
<path d="M37.8586 1.74951C37.8586 2.71574 38.6462 3.49903 39.6179 3.49903C40.5895 3.49903 41.3772 2.71574 41.3772 1.74951C41.3772 0.783284 40.5895 -3.44305e-08 39.6179 -7.69025e-08C38.6462 -1.19374e-07 37.8586 0.783284 37.8586 1.74951Z" fill="#2c2c2c"/>
<path d="M37.8586 13.9702C37.8586 14.9364 38.6462 15.7197 39.6179 15.7197C40.5895 15.7197 41.3772 14.9364 41.3772 13.9702C41.3772 13.004 40.5895 12.2207 39.6179 12.2207C38.6462 12.2207 37.8586 13.004 37.8586 13.9702Z" fill="#2c2c2c"/>
<path d="M37.8586 26.1802C37.8586 27.1464 38.6462 27.9297 39.6179 27.9297C40.5895 27.9297 41.3772 27.1464 41.3772 26.1802C41.3772 25.2139 40.5895 24.4307 39.6179 24.4307C38.6462 24.4307 37.8586 25.2139 37.8586 26.1802Z" fill="#2c2c2c"/>
<path d="M37.8586 38.4004C37.8586 39.3666 38.6462 40.1499 39.6179 40.1499C40.5895 40.1499 41.3772 39.3666 41.3772 38.4004C41.3772 37.4342 40.5895 36.6509 39.6179 36.6509C38.6462 36.6509 37.8586 37.4342 37.8586 38.4004Z" fill="#2c2c2c"/>
<path d="M37.8586 50.6108C37.8586 51.5771 38.6462 52.3603 39.6179 52.3603C40.5895 52.3603 41.3772 51.5771 41.3772 50.6108C41.3772 49.6446 40.5895 48.8613 39.6179 48.8613C38.6462 48.8613 37.8586 49.6446 37.8586 50.6108Z" fill="#2c2c2c"/>
<path d="M37.8586 62.8306C37.8586 63.7968 38.6462 64.5801 39.6179 64.5801C40.5895 64.5801 41.3772 63.7968 41.3772 62.8306C41.3772 61.8643 40.5895 61.0811 39.6179 61.0811C38.6462 61.0811 37.8586 61.8643 37.8586 62.8306Z" fill="#2c2c2c"/>
<path d="M197.267 404.826C197.267 405.792 198.055 406.576 199.026 406.576C199.998 406.576 200.786 405.792 200.786 404.826C200.786 403.86 199.998 403.077 199.026 403.077C198.055 403.077 197.267 403.86 197.267 404.826Z" fill="#2c2c2c"/>
<path d="M197.268 417.038C197.268 418.004 198.055 418.787 199.027 418.787C199.998 418.787 200.786 418.004 200.786 417.038C200.786 416.071 199.998 415.288 199.027 415.288C198.055 415.288 197.268 416.071 197.268 417.038Z" fill="#2c2c2c"/>
<path d="M197.268 429.256C197.268 430.222 198.055 431.005 199.027 431.005C199.998 431.005 200.786 430.222 200.786 429.256C200.786 428.29 199.998 427.506 199.027 427.506C198.055 427.506 197.268 428.29 197.268 429.256Z" fill="#2c2c2c"/>
<path d="M184.978 404.826C184.978 405.792 185.766 406.575 186.738 406.575C187.709 406.575 188.497 405.792 188.497 404.826C188.497 403.859 187.709 403.076 186.738 403.076C185.766 403.076 184.978 403.859 184.978 404.826Z" fill="#2c2c2c"/>
<path d="M184.978 417.038C184.978 418.004 185.766 418.787 186.738 418.787C187.709 418.787 188.497 418.004 188.497 417.038C188.497 416.071 187.709 415.288 186.738 415.288C185.766 415.288 184.978 416.071 184.978 417.038Z" fill="#2c2c2c"/>
<path d="M184.978 429.256C184.978 430.222 185.766 431.005 186.738 431.005C187.709 431.005 188.497 430.222 188.497 429.256C188.497 428.29 187.709 427.506 186.738 427.506C185.766 427.506 184.978 428.29 184.978 429.256Z" fill="#2c2c2c"/>
<path d="M251 147.077C251 148.043 251.788 148.826 252.76 148.826C253.731 148.826 254.519 148.043 254.519 147.077C254.519 146.11 253.731 145.327 252.76 145.327C251.788 145.327 251 146.11 251 147.077Z" fill="#2c2c2c"/>
<path d="M251 159.287C251 160.253 251.788 161.036 252.76 161.036C253.731 161.036 254.519 160.253 254.519 159.287C254.519 158.321 253.731 157.537 252.76 157.537C251.788 157.537 251 158.321 251 159.287Z" fill="#2c2c2c"/>
<path d="M251 171.507C251 172.473 251.788 173.256 252.76 173.256C253.731 173.256 254.519 172.473 254.519 171.507C254.519 170.54 253.731 169.757 252.76 169.757C251.788 169.757 251 170.54 251 171.507Z" fill="#2c2c2c"/>
<path d="M238.711 147.077C238.711 148.043 239.499 148.826 240.47 148.826C241.442 148.826 242.23 148.043 242.23 147.077C242.23 146.11 241.442 145.327 240.47 145.327C239.499 145.327 238.711 146.11 238.711 147.077Z" fill="#2c2c2c"/>
<path d="M238.711 159.287C238.711 160.253 239.499 161.036 240.47 161.036C241.442 161.036 242.23 160.253 242.23 159.287C242.23 158.321 241.442 157.537 240.47 157.537C239.499 157.537 238.711 158.321 238.711 159.287Z" fill="#2c2c2c"/>
<path d="M238.711 171.507C238.711 172.473 239.499 173.257 240.47 173.257C241.442 173.257 242.23 172.473 242.23 171.507C242.23 170.541 241.442 169.758 240.47 169.758C239.499 169.758 238.711 170.541 238.711 171.507Z" fill="#2c2c2c"/>
<path d="M74.7074 584.25C74.7074 585.216 75.4951 586 76.4668 586C77.4384 586 78.2261 585.216 78.2261 584.25C78.2261 583.284 77.4384 582.501 76.4668 582.501C75.4951 582.501 74.7074 583.284 74.7074 584.25Z" fill="#2c2c2c"/>
<path d="M62.4182 584.251C62.4182 585.217 63.2058 586 64.1775 586C65.1491 586 65.9368 585.217 65.9368 584.251C65.9368 583.284 65.1491 582.501 64.1775 582.501C63.2058 582.501 62.4182 583.284 62.4182 584.251Z" fill="#2c2c2c"/>
<path d="M50.1382 584.251C50.1382 585.217 50.9259 586 51.8975 586C52.8692 586 53.6569 585.217 53.6569 584.251C53.6569 583.284 52.8692 582.501 51.8975 582.501C50.9259 582.501 50.1382 583.284 50.1382 584.251Z" fill="#2c2c2c"/>
<path d="M37.8489 584.251C37.8489 585.217 38.6366 586 39.6082 586C40.5799 586 41.3676 585.217 41.3676 584.251C41.3676 583.284 40.5799 582.501 39.6082 582.501C38.6366 582.501 37.8489 583.284 37.8489 584.251Z" fill="#2c2c2c"/>
<path d="M25.5691 584.251C25.5691 585.217 26.3568 586 27.3284 586C28.3001 586 29.0878 585.217 29.0878 584.251C29.0878 583.284 28.3001 582.501 27.3284 582.501C26.3568 582.501 25.5691 583.284 25.5691 584.251Z" fill="#2c2c2c"/>
<path d="M13.2799 584.251C13.2799 585.217 14.0676 586 15.0393 586C16.0109 586 16.7986 585.217 16.7986 584.251C16.7986 583.284 16.0109 582.501 15.0393 582.501C14.0676 582.501 13.2799 583.284 13.2799 584.251Z" fill="#2c2c2c"/>
<path d="M0.999908 584.251C0.999908 585.217 1.78759 586 2.75923 586C3.73088 586 4.51855 585.217 4.51855 584.251C4.51855 583.284 3.73088 582.501 2.75923 582.501C1.78759 582.501 0.999908 583.284 0.999908 584.251Z" fill="#2c2c2c"/>
<path d="M74.7074 572.031C74.7074 572.997 75.4951 573.78 76.4668 573.78C77.4384 573.78 78.2261 572.997 78.2261 572.031C78.2261 571.065 77.4384 570.281 76.4668 570.281C75.4951 570.281 74.7074 571.065 74.7074 572.031Z" fill="#2c2c2c"/>
<path d="M62.4182 572.031C62.4182 572.997 63.2058 573.78 64.1775 573.78C65.1491 573.78 65.9368 572.997 65.9368 572.031C65.9368 571.065 65.1491 570.281 64.1775 570.281C63.2058 570.281 62.4182 571.065 62.4182 572.031Z" fill="#2c2c2c"/>
<path d="M50.1382 572.031C50.1382 572.997 50.9259 573.78 51.8975 573.78C52.8692 573.78 53.6569 572.997 53.6569 572.031C53.6569 571.065 52.8692 570.281 51.8975 570.281C50.9259 570.281 50.1382 571.065 50.1382 572.031Z" fill="#2c2c2c"/>
<path d="M37.8489 572.031C37.8489 572.997 38.6366 573.78 39.6082 573.78C40.5799 573.78 41.3676 572.997 41.3676 572.031C41.3676 571.065 40.5799 570.281 39.6082 570.281C38.6366 570.281 37.8489 571.065 37.8489 572.031Z" fill="#2c2c2c"/>
<path d="M25.5691 572.031C25.5691 572.997 26.3568 573.78 27.3284 573.78C28.3001 573.78 29.0878 572.997 29.0878 572.031C29.0878 571.065 28.3001 570.281 27.3284 570.281C26.3568 570.281 25.5691 571.065 25.5691 572.031Z" fill="#2c2c2c"/>
<path d="M13.2799 572.031C13.2799 572.997 14.0676 573.78 15.0393 573.78C16.0109 573.78 16.7986 572.997 16.7986 572.031C16.7986 571.065 16.0109 570.281 15.0393 570.281C14.0676 570.281 13.2799 571.065 13.2799 572.031Z" fill="#2c2c2c"/>
<path d="M0.999908 572.031C0.999908 572.997 1.78759 573.78 2.75923 573.78C3.73088 573.78 4.51855 572.997 4.51855 572.031C4.51855 571.065 3.73088 570.281 2.75923 570.281C1.78759 570.281 0.999908 571.065 0.999908 572.031Z" fill="#2c2c2c"/>
<path d="M74.7074 559.82C74.7074 560.786 75.4951 561.569 76.4668 561.569C77.4384 561.569 78.2261 560.786 78.2261 559.82C78.2261 558.854 77.4384 558.07 76.4668 558.07C75.4951 558.07 74.7074 558.854 74.7074 559.82Z" fill="#2c2c2c"/>
<path d="M62.4182 559.82C62.4182 560.786 63.2058 561.569 64.1775 561.569C65.1491 561.569 65.9368 560.786 65.9368 559.82C65.9368 558.854 65.1491 558.07 64.1775 558.07C63.2058 558.07 62.4182 558.854 62.4182 559.82Z" fill="#2c2c2c"/>
<path d="M50.1382 559.82C50.1382 560.786 50.9259 561.569 51.8975 561.569C52.8692 561.569 53.6569 560.786 53.6569 559.82C53.6569 558.854 52.8692 558.07 51.8975 558.07C50.9259 558.07 50.1382 558.854 50.1382 559.82Z" fill="#2c2c2c"/>
<path d="M37.8489 559.82C37.8489 560.786 38.6366 561.569 39.6082 561.569C40.5799 561.569 41.3676 560.786 41.3676 559.82C41.3676 558.854 40.5799 558.07 39.6082 558.07C38.6366 558.07 37.8489 558.854 37.8489 559.82Z" fill="#2c2c2c"/>
<path d="M25.5691 559.82C25.5691 560.786 26.3568 561.569 27.3284 561.569C28.3001 561.569 29.0878 560.786 29.0878 559.82C29.0878 558.854 28.3001 558.07 27.3284 558.07C26.3568 558.07 25.5691 558.854 25.5691 559.82Z" fill="#2c2c2c"/>
<path d="M13.2799 559.82C13.2799 560.786 14.0676 561.569 15.0393 561.569C16.0109 561.569 16.7986 560.786 16.7986 559.82C16.7986 558.854 16.0109 558.07 15.0393 558.07C14.0676 558.07 13.2799 558.854 13.2799 559.82Z" fill="#2c2c2c"/>
<path d="M0.999908 559.82C0.999908 560.786 1.78759 561.569 2.75923 561.569C3.73088 561.569 4.51855 560.786 4.51855 559.82C4.51855 558.854 3.73088 558.07 2.75923 558.07C1.78759 558.07 0.999908 558.854 0.999908 559.82Z" fill="#2c2c2c"/>
<path d="M74.7065 547.601C74.7065 548.567 75.4941 549.35 76.4658 549.35C77.4374 549.35 78.2251 548.567 78.2251 547.601C78.2251 546.634 77.4374 545.851 76.4658 545.851C75.4941 545.851 74.7065 546.634 74.7065 547.601Z" fill="#2c2c2c"/>
<path d="M62.4182 547.6C62.4182 548.566 63.2058 549.35 64.1775 549.35C65.1491 549.35 65.9368 548.566 65.9368 547.6C65.9368 546.634 65.1491 545.851 64.1775 545.851C63.2058 545.851 62.4182 546.634 62.4182 547.6Z" fill="#2c2c2c"/>
<path d="M50.1382 547.6C50.1382 548.566 50.9259 549.35 51.8975 549.35C52.8692 549.35 53.6569 548.566 53.6569 547.6C53.6569 546.634 52.8692 545.851 51.8975 545.851C50.9259 545.851 50.1382 546.634 50.1382 547.6Z" fill="#2c2c2c"/>
<path d="M37.8489 547.6C37.8489 548.566 38.6366 549.35 39.6082 549.35C40.5799 549.35 41.3676 548.566 41.3676 547.6C41.3676 546.634 40.5799 545.851 39.6082 545.851C38.6366 545.851 37.8489 546.634 37.8489 547.6Z" fill="#2c2c2c"/>
<path d="M25.5691 547.6C25.5691 548.566 26.3568 549.35 27.3284 549.35C28.3001 549.35 29.0878 548.566 29.0878 547.6C29.0878 546.634 28.3001 545.851 27.3284 545.851C26.3568 545.851 25.5691 546.634 25.5691 547.6Z" fill="#2c2c2c"/>
<path d="M13.2799 547.6C13.2799 548.566 14.0676 549.35 15.0393 549.35C16.0109 549.35 16.7986 548.566 16.7986 547.6C16.7986 546.634 16.0109 545.851 15.0393 545.851C14.0676 545.851 13.2799 546.634 13.2799 547.6Z" fill="#2c2c2c"/>
<path d="M0.999908 547.6C0.999908 548.566 1.78759 549.35 2.75923 549.35C3.73088 549.35 4.51855 548.566 4.51855 547.6C4.51855 546.634 3.73088 545.851 2.75923 545.851C1.78759 545.851 0.999908 546.634 0.999908 547.6Z" fill="#2c2c2c"/>
</svg>
